<svg width="15" height="23" viewBox="0 0 15 23" fill="none" xmlns="http://www.w3.org/2000/svg">
<path d="M14.6133 8.83341C14.5177 8.69205 14.3889 8.57632 14.2382 8.4964C14.0874 8.41649 13.9193 8.37482 13.7487 8.37508H10.6237V6.29175H12.9154C13.1916 6.29175 13.4566 6.182 13.6519 5.98665C13.8473 5.7913 13.957 5.52635 13.957 5.25008V1.08341C13.957 0.807148 13.8473 0.542198 13.6519 0.346848C13.4566 0.151488 13.1916 0.041748 12.9154 0.041748H9.582C7.9797 0.041748 6.443 0.678278 5.3099 1.81131C4.1769 2.94434 3.54036 4.48107 3.54036 6.08341V8.37508H1.2487C0.972432 8.37508 0.707481 8.48483 0.512131 8.68018C0.316781 8.87553 0.207031 9.1405 0.207031 9.4167V13.5834C0.207031 13.8597 0.316781 14.1246 0.512131 14.32C0.707481 14.5153 0.972432 14.6251 1.2487 14.6251H3.54036V21.9167C3.54036 22.193 3.65011 22.458 3.84546 22.6533C4.04081 22.8487 4.30576 22.9584 4.58203 22.9584H9.582C9.8583 22.9584 10.1233 22.8487 10.3186 22.6533C10.514 22.458 10.6237 22.193 10.6237 21.9167V14.6251H12.082C12.2907 14.6253 12.4945 14.5628 12.6673 14.4458C12.84 14.3288 12.9736 14.1626 13.0508 13.9688L14.7174 9.8022C14.7804 9.6444 14.8038 9.4737 14.7856 9.3049C14.7675 9.136 14.7083 8.97417 14.6133 8.83341ZM11.3737 12.5417H9.582C9.3058 12.5417 9.0408 12.6515 8.8455 12.8468C8.6501 13.0422 8.5404 13.3071 8.5404 13.5834V20.8751H5.6237V13.5834C5.6237 13.3071 5.514 13.0422 5.3186 12.8468C5.1233 12.6515 4.8583 12.5417 4.58203 12.5417H2.29036V10.4584H4.58203C4.8583 10.4584 5.1233 10.3487 5.3186 10.1533C5.514 9.958 5.6237 9.693 5.6237 9.4167V6.08341C5.6264 5.03444 6.0444 4.02922 6.7861 3.28749C7.5278 2.54575 8.5331 2.12783 9.582 2.12508H11.8737V4.20841H11.0404C10.6877 4.15703 10.3282 4.1786 9.9842 4.27177C9.6402 4.36494 9.3189 4.52774 9.0404 4.75008C8.8713 4.92706 8.7399 5.13643 8.6539 5.36559C8.568 5.59474 8.5294 5.83893 8.5404 6.08341V9.4167C8.5404 9.693 8.6501 9.958 8.8455 10.1533C9.0408 10.3487 9.3058 10.4584 9.582 10.4584H12.207L11.3737 12.5417Z" fill="#1A1930"/>
</svg>
