<svg width="23" height="23" viewBox="0 0 23 23" fill="none" xmlns="http://www.w3.org/2000/svg">
<path d="M17.2306 8.37431C16.298 8.37391 15.3799 8.60458 14.5582 9.04574C14.4833 8.84822 14.35 8.67823 14.1761 8.55831C14.0022 8.43839 13.796 8.37421 13.5847 8.37431H9.4181C9.2813 8.37423 9.1458 8.40112 9.0193 8.45344C8.89293 8.50576 8.77807 8.58249 8.68133 8.67923C8.58458 8.77597 8.50786 8.89084 8.45554 9.01724C8.40322 9.14364 8.37633 9.27914 8.3764 9.41594V21.9159C8.37632 22.0527 8.40321 22.1882 8.45553 22.3147C8.50785 22.4411 8.58458 22.5559 8.68132 22.6527C8.77807 22.7494 8.89293 22.8261 9.0193 22.8785C9.1458 22.9308 9.2813 22.9577 9.4181 22.9576H13.5847C13.7216 22.9577 13.857 22.9308 13.9835 22.8785C14.1099 22.8261 14.2247 22.7494 14.3215 22.6527C14.4182 22.5559 14.495 22.4411 14.5473 22.3147C14.5996 22.1882 14.6265 22.0527 14.6264 21.9159V16.1868C14.6264 15.9105 14.7361 15.6455 14.9315 15.4502C15.1269 15.2548 15.3918 15.1451 15.6681 15.1451C15.9443 15.1451 16.2093 15.2548 16.4046 15.4502C16.6 15.6455 16.7097 15.9105 16.7097 16.1868V21.9159C16.7097 22.0527 16.7365 22.1882 16.7889 22.3147C16.8412 22.4411 16.9179 22.5559 17.0147 22.6527C17.1114 22.7494 17.2263 22.8261 17.3527 22.8785C17.4791 22.9308 17.6146 22.9577 17.7514 22.9576H21.9181C22.0549 22.9577 22.1904 22.9308 22.3168 22.8785C22.4432 22.8261 22.5581 22.7494 22.6548 22.6527C22.7516 22.5559 22.8283 22.4411 22.8806 22.3147C22.9329 22.1882 22.9598 22.0527 22.9597 21.9159V14.1034C22.9578 12.5845 22.3536 11.1284 21.2796 10.0544C20.2056 8.98041 18.7495 8.37619 17.2306 8.37431ZM20.8764 20.8743H18.7931V16.1868C18.7931 15.358 18.4638 14.5631 17.8778 13.9771C17.2917 13.391 16.4969 13.0618 15.6681 13.0618C14.8393 13.0618 14.0444 13.391 13.4584 13.9771C12.8723 14.5631 12.5431 15.358 12.5431 16.1868V20.8743H10.4597V10.4576H12.5431V11.19C12.5432 11.4059 12.6103 11.6163 12.7352 11.7924C12.8601 11.9684 13.0365 12.1013 13.2402 12.1728C13.4438 12.2443 13.6647 12.2507 13.8722 12.1913C14.0797 12.1319 14.2636 12.0095 14.3985 11.8411C14.866 11.2474 15.5072 10.8144 16.2326 10.6028C16.9581 10.3911 17.7315 10.4113 18.4449 10.6604C19.1583 10.9096 19.7761 11.3753 20.212 11.9925C20.6479 12.6098 20.8802 13.3478 20.8764 14.1034V20.8743ZM6.29307 8.37431H2.1264C1.98959 8.37423 1.8541 8.40112 1.72768 8.45344C1.60127 8.50576 1.4864 8.58249 1.38966 8.67923C1.29292 8.77597 1.21619 8.89084 1.16387 9.01724C1.11155 9.14364 1.08466 9.27914 1.08474 9.41594V21.9159C1.08466 22.0527 1.11155 22.1882 1.16387 22.3147C1.21619 22.4411 1.29291 22.5559 1.38966 22.6527C1.4864 22.7494 1.60126 22.8261 1.72768 22.8785C1.8541 22.9308 1.98959 22.9577 2.1264 22.9576H6.29307C6.42989 22.9577 6.56538 22.9308 6.69179 22.8785C6.81821 22.8261 6.93307 22.7494 7.02982 22.6527C7.12656 22.5559 7.20329 22.4411 7.25561 22.3147C7.30793 22.1882 7.33482 22.0527 7.33474 21.9159V9.41594C7.33482 9.27914 7.30792 9.14364 7.2556 9.01724C7.20328 8.89084 7.12656 8.77597 7.02981 8.67923C6.93307 8.58249 6.81821 8.50576 6.69179 8.45344C6.56538 8.40112 6.42989 8.37423 6.29307 8.37431ZM5.2514 20.8743H3.16807V10.4576H5.2514V20.8743ZM4.225 0.606604C3.76912 0.579314 3.31246 0.645034 2.88279 0.799774C2.45311 0.954514 2.0594 1.19502 1.72559 1.5067C1.39178 1.81837 1.12486 2.19468 0.94105 2.61274C0.75724 3.03081 0.66039 3.4819 0.65638 3.93857C0.65237 4.39524 0.7413 4.84796 0.91774 5.26918C1.09419 5.69041 1.35447 6.07135 1.68276 6.38883C2.01104 6.70631 2.40048 6.9537 2.82737 7.11595C3.25427 7.2782 3.7097 7.35193 4.16599 7.33264H4.19549C4.65257 7.35979 5.11038 7.29346 5.54096 7.13769C5.97154 6.98193 6.36584 6.74001 6.69976 6.42671C7.03368 6.11341 7.30022 5.73532 7.48308 5.31554C7.66594 4.89575 7.76129 4.44308 7.7633 3.9852C7.7653 3.52732 7.67393 3.07384 7.49476 2.65246C7.31559 2.23109 7.05238 1.85067 6.72122 1.53446C6.39005 1.21825 5.99789 0.972874 5.5687 0.813344C5.1395 0.653814 4.68229 0.583464 4.22499 0.606604H4.225ZM4.1955 5.24931H4.16599C3.98585 5.27118 3.80311 5.25429 3.63004 5.19975C3.45697 5.14522 3.29755 5.05431 3.16249 4.93312C3.02743 4.81194 2.91984 4.66327 2.84694 4.49709C2.77404 4.33092 2.73751 4.15108 2.73981 3.96963C2.73981 3.19244 3.3227 2.68992 4.225 2.68992C4.40697 2.66566 4.59204 2.68068 4.76772 2.73397C4.94341 2.78725 5.10563 2.87757 5.24347 2.99883C5.38131 3.12009 5.49157 3.26948 5.56681 3.43694C5.64205 3.6044 5.68053 3.78604 5.67966 3.96963C5.67966 4.74681 5.09678 5.24931 4.1955 5.24931Z" fill="#1A1930"/>
</svg>
