<svg width="19" height="19" xmlns="http://www.w3.org/2000/svg" fill="none">

 <g>
  <title>Layer 1</title>
  <path id="svg_1" fill="#1A1930" d="m14.385,6.52502c-0.0652,-0.14987 -0.171,-0.27848 -0.3056,-0.37127c-0.1345,-0.09279 -0.2923,-0.14604 -0.4556,-0.15373l-4.0075,0l1.1112,-4.1475c0.0354,-0.12978 0.0404,-0.26598 0.0146,-0.398c-0.0258,-0.13203 -0.0817,-0.25633 -0.1633,-0.36325c-0.0815,-0.10588 -0.1862,-0.19169 -0.306,-0.25085c-0.1198,-0.05915 -0.2516,-0.09007 -0.3853,-0.0904l-6.12496,0c-0.19754,-0.00676 -0.39155,0.05355 -0.55044,0.17113c-0.15888,0.11758 -0.27328,0.28548 -0.32456,0.47637l-2.345,8.74998c-0.03539,0.1298 -0.04038,0.266 -0.01458,0.398c0.0258,0.1321 0.08169,0.2564 0.16333,0.3633c0.08242,0.107 0.1885,0.1936 0.30995,0.2528c0.12144,0.0592 0.25495,0.0894 0.39005,0.0884l3.38625,0l-1.58375,5.8975c-0.05189,0.1902 -0.03804,0.3923 0.03929,0.5736c0.07734,0.1814 0.21363,0.3312 0.3868,0.4254c0.17317,0.0942 0.37307,0.1272 0.5673,0.0935c0.19424,-0.0336 0.37143,-0.1318 0.50286,-0.2787l9.53746,-10.50003c0.1136,-0.12435 0.1889,-0.27883 0.2168,-0.4449c0.028,-0.16607 0.0074,-0.33668 -0.0593,-0.49135zm-8.56621,7.59498l0.93625,-3.5c0.0354,-0.1298 0.04039,-0.266 0.01459,-0.398c-0.0258,-0.132 -0.08169,-0.2563 -0.16334,-0.3632c-0.08151,-0.1059 -0.18619,-0.1917 -0.30601,-0.2509c-0.11983,-0.0591 -0.25161,-0.0901 -0.38524,-0.0904l-3.36,0l1.8725,-7.01748l4.31376,0l-1.1113,4.1475c-0.0356,0.13218 -0.0398,0.27088 -0.0121,0.40496c0.0277,0.13407 0.0864,0.25978 0.1715,0.36702c0.0851,0.10723 0.1942,0.193 0.3185,0.25041c0.1243,0.0574 0.2603,0.08484 0.3971,0.08011l3.1238,0l-5.81001,6.36998z"/>
 </g>
</svg>