<svg width="21" height="21" viewBox="0 0 21 21" fill="none" xmlns="http://www.w3.org/2000/svg">
<path d="M16.6172 18.3767H15.7422V16.9181C15.7395 16.4174 15.6508 15.9208 15.4801 15.4501C15.4705 15.4244 15.4605 15.4006 15.4487 15.3761C15.3069 14.9897 15.1112 14.6254 14.8672 14.2939L13.6423 12.6602C13.3024 12.205 13.1183 11.6525 13.1172 11.0845V10.2009C13.1192 9.50519 13.3954 8.83834 13.8858 8.34493L14.4609 7.76985C15.129 7.09807 15.5583 6.22556 15.6826 5.28627C15.6831 5.2741 15.6896 5.26395 15.6896 5.25167L15.6872 5.23965C15.7176 5.05334 15.736 4.86527 15.7422 4.6766V2.62671H16.6172C16.8493 2.62671 17.0718 2.53452 17.2359 2.37043C17.4 2.20633 17.4922 1.98377 17.4922 1.75171C17.4922 1.51964 17.4 1.29708 17.2359 1.13299C17.0718 0.968896 16.8493 0.876709 16.6172 0.876709H4.3672C4.13513 0.876709 3.91257 0.968896 3.74848 1.13299C3.58438 1.29708 3.4922 1.51964 3.4922 1.75171C3.4922 1.98377 3.58438 2.20633 3.74848 2.37043C3.91257 2.53452 4.13513 2.62671 4.3672 2.62671H5.2422V4.6766C5.24841 4.86527 5.26679 5.05334 5.29721 5.23965L5.29474 5.25171C5.29474 5.26396 5.30125 5.27414 5.30174 5.28632C5.42613 6.2256 5.85534 7.09811 6.5235 7.7699L7.09858 8.34497C7.58901 8.83837 7.86518 9.50521 7.86719 10.2009V11.0845C7.86605 11.6524 7.68209 12.2049 7.34253 12.6601L6.11676 14.2939C5.87285 14.6255 5.67713 14.99 5.53543 15.3764C5.5238 15.4007 5.5138 15.4242 5.50435 15.4497C5.3336 15.9205 5.24493 16.4172 5.24219 16.9181V18.3767H4.36719C4.13512 18.3767 3.91256 18.4689 3.74847 18.633C3.58437 18.7971 3.49219 19.0196 3.49219 19.2517C3.49219 19.4838 3.58437 19.7063 3.74847 19.8704C3.91256 20.0345 4.13512 20.1267 4.36719 20.1267H16.6172C16.8493 20.1267 17.0718 20.0345 17.2359 19.8704C17.4 19.7063 17.4922 19.4838 17.4922 19.2517C17.4922 19.0196 17.4 18.7971 17.2359 18.633C17.0718 18.4689 16.8493 18.3767 16.6172 18.3767V18.3767ZM6.99219 4.37671V2.62671H13.9922V4.37671H6.99219ZM7.7608 6.5326C7.63751 6.40873 7.52703 6.27275 7.43103 6.12671H13.5533C13.4573 6.27275 13.3469 6.40873 13.2236 6.5326L12.6485 7.10767C11.966 7.78619 11.5283 8.67232 11.4044 9.62671H9.57998C9.45605 8.67229 9.01841 7.78613 8.33587 7.10758L7.7608 6.5326ZM8.74262 13.7095C9.24891 13.0311 9.54912 12.2212 9.60736 11.3767H11.377C11.4352 12.2213 11.7356 13.0312 12.2422 13.7095L13.1173 14.8767H7.86686L8.74262 13.7095ZM13.9922 18.3767H6.99219V16.9181C6.99462 16.8206 7.00257 16.7233 7.016 16.6267H13.9684C13.9818 16.7233 13.9898 16.8206 13.9922 16.9181V18.3767Z" fill="#1A1930"/>
</svg>
