<svg width="23" height="22" xmlns="http://www.w3.org/2000/svg" fill="none">

 <g>
  <title>Layer 1</title>
  <path id="svg_1" fill="#1A1930" d="m22.9481,2.11484c0.0002,-0.18399 -0.0485,-0.36473 -0.1409,-0.52381c-0.0925,-0.15908 -0.2255,-0.29081 -0.3854,-0.38178c-0.1599,-0.09098 -0.3411,-0.13794 -0.5251,-0.13612c-0.184,0.00183 -0.3642,0.05239 -0.5223,0.14652c-0.6097,0.3629 -1.2661,0.64082 -1.951,0.82604c-0.9782,-0.83934 -2.2257,-1.29863 -3.5146,-1.29394c-1.414,0.00163 -2.772,0.5527 -3.7873,1.53685c-1.0152,0.98415 -1.6083,2.32436 -1.654,3.73761c-2.78749,-0.44452 -5.31389,-1.89946 -7.09741,-4.08736c-0.10747,-0.13038 -0.24471,-0.23301 -0.40015,-0.29922c-0.15544,-0.06622 -0.32453,-0.09409 -0.493,-0.08125c-0.16838,0.01386 -0.33084,0.06853 -0.47334,0.15928c-0.1425,0.09075 -0.26076,0.21484 -0.34454,0.36155c-0.42966,0.74981 -0.67642,1.59038 -0.72026,2.45345c-0.04383,0.86307 0.1165,1.72431 0.46798,2.51379l-0.00203,0.00203c-0.15797,0.0973 -0.28834,0.2335 -0.37864,0.39557c-0.0903,0.16208 -0.1375,0.34461 -0.13711,0.53014c-0.00191,0.15301 0.00727,0.30601 0.02747,0.45781c0.10639,1.31061 0.68727,2.5375 1.63371,3.4505c-0.06421,0.1223 -0.10339,0.2562 -0.11527,0.3938c-0.01188,0.1376 0.00379,0.2763 0.04609,0.4078c0.41262,1.2855 1.29011,2.3709 2.46074,3.0436c-1.18933,0.4599 -2.47352,0.6202 -3.73943,0.4669c-0.2343,-0.0294 -0.47163,0.0217 -0.67307,0.1449c-0.20144,0.1232 -0.35502,0.3113 -0.43556,0.5332c-0.08053,0.222 -0.08323,0.4648 -0.00766,0.6885c0.07558,0.2237 0.22494,0.4151 0.42359,0.5428c2.17718,1.4022 4.71216,2.1478 7.30184,2.1474c2.93675,0.0331 5.80205,-0.9054 8.15025,-2.6693c2.3482,-1.7639 4.0476,-4.2544 4.8339,-7.0841c0.3678,-1.2327 0.5556,-2.51205 0.5575,-3.79841c0,-0.06816 0,-0.13835 -0.001,-0.20852c0.5438,-0.58654 0.9652,-1.27574 1.2392,-2.0272c0.2741,-0.75147 0.3954,-1.55008 0.3568,-2.34903zm-3.4444,3.34574c-0.172,0.20348 -0.2591,0.46542 -0.2431,0.73141c0.0102,0.17187 0.0091,0.34479 0.0091,0.5076c-0.0021,1.08702 -0.1614,2.16802 -0.473,3.20942c-0.6422,2.40769 -2.0738,4.53029 -4.0655,6.02769c-1.9918,1.4975 -4.4284,2.2832 -6.91975,2.2314c-0.89492,0.0003 -1.78675,-0.1049 -2.65706,-0.3133c1.1098,-0.3577 2.14749,-0.9091 3.06498,-1.6286c0.16898,-0.1331 0.29266,-0.3152 0.35405,-0.5213c0.06139,-0.2061 0.05749,-0.4262 -0.01116,-0.63c-0.06865,-0.2039 -0.1987,-0.3815 -0.37229,-0.5084c-0.17359,-0.127 -0.38222,-0.1972 -0.59727,-0.2009c-0.8658,-0.0135 -1.69257,-0.3625 -2.30611,-0.9735c0.15564,-0.0295 0.31027,-0.0661 0.46387,-0.1099c0.22501,-0.064 0.42192,-0.2019 0.55902,-0.3915c0.1371,-0.1896 0.20642,-0.4197 0.19679,-0.6535c-0.00964,-0.2337 -0.09765,-0.4575 -0.24989,-0.6351c-0.15223,-0.1776 -0.35982,-0.2989 -0.58934,-0.3442c-0.50256,-0.0992 -0.97547,-0.3131 -1.38196,-0.6248c-0.40649,-0.3118 -0.73561,-0.713 -0.96179,-1.1727c0.18826,0.0257 0.37772,0.0417 0.56763,0.0478c0.22561,0.0034 0.44645,-0.065 0.6306,-0.19539c0.18415,-0.1304 0.32205,-0.31591 0.39377,-0.52991c0.06873,-0.2159 0.0652,-0.4482 -0.01007,-0.66189c-0.07526,-0.21371 -0.21815,-0.39703 -0.407,-0.52217c-0.45818,-0.30524 -0.8335,-0.71934 -1.09234,-1.20525c-0.25884,-0.4859 -0.39312,-1.02842 -0.39082,-1.57896c0,-0.06917 0.00204,-0.13834 0.00611,-0.2065c2.33465,2.17735 5.36283,3.46088 8.55103,3.62447c0.1609,0.0063 0.3212,-0.024 0.4687,-0.0886c0.1475,-0.0647 0.2784,-0.16206 0.3828,-0.28473c0.1033,-0.12385 0.1764,-0.27 0.2137,-0.42692c0.0372,-0.15693 0.0375,-0.32035 0.0008,-0.47741c-0.0595,-0.24858 -0.0899,-0.50327 -0.0905,-0.75888c0.001,-0.8911 0.3554,-1.74545 0.9855,-2.37556c0.6301,-0.63011 1.4844,-0.98451 2.3755,-0.98545c0.4585,-0.00123 0.9123,0.0926 1.3326,0.27557c0.4204,0.18296 0.7983,0.45109 1.1099,0.78746c0.1201,0.12925 0.2713,0.22562 0.4392,0.27993c0.1679,0.05431 0.3469,0.06477 0.52,0.03037c0.4279,-0.08327 0.8497,-0.19543 1.2624,-0.33569c-0.2815,0.57602 -0.6413,1.11036 -1.0691,1.58789z"/>
 </g>
</svg>