<svg width="140" height="35" viewBox="0 0 140 35" fill="none" xmlns="http://www.w3.org/2000/svg">
<path d="M45.206 13.6262C45.206 11.1409 42.7638 8.50135 38.5377 8.50135C33.7919 8.50135 28.5785 11.9465 27.7817 18.8196C26.9677 25.7612 31.3324 28.8464 35.7318 28.8464C40.1311 28.8464 42.4347 27.1496 44.7903 24.8871C42.7638 22.3676 40.1485 23.5331 39.6462 23.7902C39.0919 24.0644 38.3818 24.4414 36.9269 24.4414C35.2295 24.4414 33.4974 23.6873 33.4974 20.5507C44.3746 19.4881 45.206 16.1115 45.206 13.6262ZM39.8194 14.0376C39.7501 14.8089 39.4383 16.1287 33.9305 16.8656C35.0909 12.7864 37.3079 12.4779 38.3299 12.4779C39.2825 12.4779 39.8887 13.2148 39.8194 14.0376ZM21.3906 14.7061C21.3906 14.7061 19.0523 21.9734 18.8618 22.5732C18.7925 21.9562 17.0778 8.91275 17.0778 8.91275C13.0941 8.91275 10.9638 11.7237 9.83795 14.6888C9.83795 14.6888 6.9974 21.9734 6.75492 22.5904C6.7376 22.0248 6.32191 14.7746 6.32191 14.7746C6.07943 11.1409 2.71929 8.92989 0 8.92989L3.29085 28.6922C7.46502 28.675 9.71666 25.8812 10.8945 22.916C10.8945 22.916 13.4059 16.4886 13.5099 16.1972C13.5272 16.4714 15.3111 28.6922 15.3111 28.6922C19.5027 28.6922 21.7543 26.0697 22.9667 23.2074L28.8383 8.92989C24.6987 8.92989 22.5164 11.7237 21.3906 14.7061ZM60.5864 8.46708C58.0057 8.46708 56.0312 9.85542 54.3684 11.8951V11.8779L55.858 0C52.4285 0 49.64 2.94806 49.1031 7.33585L46.505 28.5379C48.4795 28.5379 50.5753 27.9723 51.7011 26.5326C52.7057 27.818 54.2126 28.8464 56.4469 28.8464C62.2318 28.8464 66.1982 22.1961 66.1982 15.9572C66.1636 10.2668 63.375 8.46708 60.5864 8.46708ZM60.0495 18.6654C59.4433 22.1447 57.4861 24.5101 55.5982 24.5101C53.6929 24.5101 52.8789 23.6702 52.8789 23.6702C53.2426 20.6193 53.4678 18.751 54.1606 17.1399C54.8534 15.5287 56.4988 12.9577 58.2135 12.9577C59.8936 12.9577 60.6557 15.1688 60.0495 18.6654ZM80.6437 8.92989H76.608L76.6249 8.72419C76.902 6.11894 77.5254 4.74775 79.5871 4.52493C80.99 4.38781 81.6134 3.66793 81.7688 2.8795C81.8904 2.26247 82.2714 0.119979 82.2714 0.119979C74.1654 0.0685595 71.6194 3.53081 70.9613 8.80986L70.944 8.92989H70.8574C69.541 8.92989 68.0861 10.4039 67.8436 12.2722L67.757 12.9577H70.459L68.19 31.5031L67.4972 34.8282C67.5838 34.8282 67.6877 34.8454 67.7744 34.8454C71.5675 34.7083 73.9922 31.743 74.5294 27.4409L76.2956 12.9577H77.56C78.8075 12.9577 80.262 11.7237 80.5221 9.66693L80.6437 8.92989ZM101.636 8.5871C96.9765 8.5871 92.5768 11.9808 91.2262 17.3113C89.8748 22.6418 91.9188 28.9492 98.7774 28.9492C105.619 28.9492 109.568 22.3847 109.568 16.917C109.568 11.4837 105.844 8.5871 101.636 8.5871ZM103.523 18.4939C103.281 20.9107 102.207 24.5786 99.2629 24.5786C96.3008 24.5786 96.7164 20.2937 97.0112 18.254C97.3228 16.0772 98.5526 12.9749 101.202 12.9749C103.576 12.9749 103.8 15.7687 103.523 18.4939ZM132.587 14.7061C132.587 14.7061 130.249 21.9734 130.058 22.5732C129.989 21.9562 128.274 8.91275 128.274 8.91275C124.291 8.91275 122.16 11.7237 121.034 14.6888C121.034 14.6888 118.194 21.9734 117.951 22.5904C117.934 22.0248 117.518 14.7746 117.518 14.7746C117.276 11.1409 113.916 8.92989 111.196 8.92989L114.47 28.6922C118.644 28.675 120.896 25.8812 122.073 22.916C122.073 22.916 124.585 16.4886 124.671 16.1972C124.706 16.4714 126.473 28.6922 126.473 28.6922C130.664 28.6922 132.916 26.0697 134.128 23.2074L140 8.92989C135.878 8.92989 133.696 11.7237 132.587 14.7061ZM84.4539 0.119979L81.0593 27.2181L80.3659 30.5604C80.4528 30.5604 80.5567 30.5775 80.6437 30.5775C84.2977 30.5261 86.8958 27.3553 87.3806 23.3616L89.3384 7.81579C89.9272 3.06804 87.0689 0.119979 84.4539 0.119979Z" fill="#1A1930"/>
</svg>
